<svg xmlns="http://www.w3.org/2000/svg" width="159.684" height="89.076" viewBox="0 0 159.684 89.076">
  <g id="Group_165" data-name="Group 165" transform="translate(-980.316 -3030.924)">
    <path id="Path_152" data-name="Path 152" d="M157.34,136.384H137.184v-.175c0-4.526-3.294-8.209-7.344-8.209s-7.344,3.683-7.344,8.209v.175H102.341a2.636,2.636,0,0,0,0,5.24H120v2.969c0,.059,0,.116,0,.175H39.683c0-.058,0-.116,0-.175v-2.969H57.342a2.636,2.636,0,0,0,0-5.24H37.187v-.175c0-4.526-3.294-8.209-7.344-8.209s-7.344,3.683-7.344,8.209v.175H2.344a2.636,2.636,0,0,0,0,5.24H20v2.969c0,6.067,4.416,11,9.844,11a9.731,9.731,0,0,0,8.564-5.589H53.153l2.187,7.333a14.239,14.239,0,0,0,2.523,4.854C50.464,164.407,45,171.963,45,180.922v13.973a2.493,2.493,0,0,0,2.344,2.62h2.5a2.636,2.636,0,0,0,0-5.24h-.156V180.922c0-7.8,5.677-14.147,12.656-14.147h35c6.979,0,12.656,6.346,12.656,14.147v11.353h-.156a2.636,2.636,0,0,0,0,5.24h2.5a2.493,2.493,0,0,0,2.344-2.62V180.922c0-8.959-5.466-16.515-12.864-18.728a14.244,14.244,0,0,0,2.523-4.854l2.187-7.333h14.746a9.731,9.731,0,0,0,8.564,5.589c5.428,0,9.844-4.936,9.844-11v-2.969H157.34a2.636,2.636,0,0,0,0-5.24Zm-130.153-.175a2.829,2.829,0,0,1,2.656-2.969,2.829,2.829,0,0,1,2.656,2.969v.175H27.187Zm2.656,14.147c-2.843,0-5.156-2.586-5.156-5.764v-2.969H35v2.969C35,147.771,32.686,150.356,29.843,150.356ZM99.9,155.683a7.771,7.771,0,0,1-7.263,5.852H67.05a7.771,7.771,0,0,1-7.263-5.852l-1.692-5.676h43.5Zm27.287-19.474a2.673,2.673,0,1,1,5.312,0v.175h-5.312ZM135,144.593c0,3.178-2.313,5.764-5.156,5.764s-5.156-2.586-5.156-5.764v-2.969H135Z" transform="translate(980.316 2902.924)"/>
    <path id="Path_153" data-name="Path 153" d="M222.718,256H178.969A3.162,3.162,0,0,0,176,259.319v37.726a3.162,3.162,0,0,0,2.969,3.319h43.749a3.162,3.162,0,0,0,2.969-3.319V259.319A3.162,3.162,0,0,0,222.718,256ZM221,295.124H180.687V261.24H221Z" transform="translate(859.315 2819.636)"/>
    <path id="Path_154" data-name="Path 154" d="M226.344,301.623H231.5v5.764a2.358,2.358,0,1,0,4.687,0v-5.764h5.156a2.636,2.636,0,0,0,0-5.24h-5.156V290.62a2.358,2.358,0,1,0-4.687,0v5.764h-5.156a2.636,2.636,0,0,0,0,5.24Z" transform="translate(826.315 2798.815)"/>
  </g>
</svg>
