<svg xmlns="http://www.w3.org/2000/svg" width="28.868" height="50.861" viewBox="0 0 28.868 50.861">
  <path id="_013-facebook" data-name="013-facebook" d="M18.331,50.861H10.186a2.47,2.47,0,0,1-2.467-2.467V30.022H2.967A2.47,2.47,0,0,1,.5,27.555V19.683a2.47,2.47,0,0,1,2.467-2.467H7.719V13.274a13.422,13.422,0,0,1,3.549-9.616A12.783,12.783,0,0,1,20.693,0l6.212.01a2.471,2.471,0,0,1,2.463,2.467V9.786A2.469,2.469,0,0,1,26.9,12.253l-4.182,0c-1.275,0-1.6.256-1.67.334-.114.13-.251.5-.251,1.512v3.114h5.788a2.508,2.508,0,0,1,1.221.31,2.476,2.476,0,0,1,1.269,2.158l0,7.872a2.47,2.47,0,0,1-2.467,2.466H20.8V48.394a2.47,2.47,0,0,1-2.468,2.467ZM10.7,47.879h7.116V28.688a1.649,1.649,0,0,1,1.647-1.647h6.629l0-6.843H19.464a1.649,1.649,0,0,1-1.647-1.647V14.1a5.078,5.078,0,0,1,1-3.485,5.054,5.054,0,0,1,3.9-1.343l3.668,0V2.991l-5.7-.009c-6.161,0-9.99,3.944-9.99,10.292V18.55A1.649,1.649,0,0,1,9.054,20.2H3.482V27.04H9.054A1.649,1.649,0,0,1,10.7,28.688ZM26.9,2.991h0Zm0,0" transform="translate(-0.5 0)"/>
</svg>
