<svg id="_014-instagram" data-name="014-instagram" xmlns="http://www.w3.org/2000/svg" width="50.861" height="50.861" viewBox="0 0 50.861 50.861">
  <path id="Path_30" data-name="Path 30" d="M37.093,0H13.767A13.783,13.783,0,0,0,0,13.768V37.094A13.783,13.783,0,0,0,13.767,50.861H37.093A13.783,13.783,0,0,0,50.86,37.094V13.768A13.783,13.783,0,0,0,37.093,0ZM47.879,37.094A10.8,10.8,0,0,1,37.093,47.88H13.767A10.8,10.8,0,0,1,2.981,37.094V13.768A10.8,10.8,0,0,1,13.767,2.982H37.093A10.8,10.8,0,0,1,47.879,13.768Zm0,0" transform="translate(0.001 0)"/>
  <path id="Path_31" data-name="Path 31" d="M129.911,116a13.907,13.907,0,1,0,13.907,13.907A13.923,13.923,0,0,0,129.911,116Zm0,24.832a10.925,10.925,0,1,1,10.925-10.925A10.938,10.938,0,0,1,129.911,140.836Zm0,0" transform="translate(-104.48 -104.48)"/>
  <path id="Path_32" data-name="Path 32" d="M362.086,66.285a4.11,4.11,0,1,0,4.11,4.109A4.114,4.114,0,0,0,362.086,66.285Zm0,5.237a1.128,1.128,0,1,1,1.128-1.128A1.129,1.129,0,0,1,362.086,71.522Zm0,0" transform="translate(-322.416 -59.701)"/>
</svg>
