<svg id="lamp" xmlns="http://www.w3.org/2000/svg" width="126.893" height="182.274" viewBox="0 0 126.893 182.274">
  <path id="Path_113" data-name="Path 113" d="M72.13,102.228a3.1,3.1,0,0,0,4-2.263c4.972-16.9,18.961-28.259,34.811-28.259,20.212,0,36.656,18.483,36.656,41.2,0,17.56-7,28.051-12.619,36.481-4.09,6.131-7.622,11.428-7.622,17.852q0,.634-.014,1.257H114.109V160.32a3.189,3.189,0,1,0-6.334,0V168.5H94.539q-.013-.624-.014-1.257c0-6.425-3.532-11.72-7.622-17.853-4.141-6.209-8.833-13.247-11.161-23.247a3.154,3.154,0,0,0-3.866-2.543,3.619,3.619,0,0,0-2.262,4.344c2.641,11.352,7.953,19.317,12.221,25.717,3.551,5.325,6.355,9.53,6.355,13.582,0,1.7.064,3.368.189,4.955v30.113c0,.1.006.189.012.282,0,.022,0,.046,0,.068.011.132.03.26.053.388v0A27.445,27.445,0,0,0,96.381,217.9a20.744,20.744,0,0,0,29.121,0,27.444,27.444,0,0,0,7.93-14.848s0,0,0,0c.024-.127.041-.254.053-.387,0-.022,0-.046,0-.068.006-.095.012-.188.012-.284V172.2c.125-1.587.191-3.25.191-4.955,0-4.052,2.8-8.258,6.355-13.582,5.859-8.786,13.885-20.818,13.885-40.75,0-26.646-19.286-48.323-42.991-48.323-18.587,0-34.992,13.32-40.824,33.145a3.673,3.673,0,0,0,2.013,4.5Zm38.812,114.52c-6.44,0-12.247-4.378-15-10.879h30c-2.753,6.5-8.56,10.879-15,10.879Zm16.227-18H94.715v-8h32.454Zm0-15.125H94.715v-8h32.454Zm0,0" transform="translate(-47.496 -41.593)" fill-rule="evenodd"/>
  <path id="Path_114" data-name="Path 114" d="M193.491,16.606a3.381,3.381,0,0,0,3.167-3.56V3.56a3.189,3.189,0,1,0-6.334,0v9.486A3.381,3.381,0,0,0,193.491,16.606Zm0,0" transform="translate(-130.045 0)" fill-rule="evenodd"/>
  <path id="Path_115" data-name="Path 115" d="M3.167,197.444h8.439a3.584,3.584,0,0,0,0-7.12H3.167a3.584,3.584,0,0,0,0,7.12Zm0,0" transform="translate(0 -122.568)" fill-rule="evenodd"/>
  <path id="Path_116" data-name="Path 116" d="M183.541,214.087a3.381,3.381,0,0,0-3.167-3.56H157.706a3.584,3.584,0,0,0,0,7.12h8.167v8.178a3.189,3.189,0,1,0,6.334,0v-8.178h8.167a3.381,3.381,0,0,0,3.167-3.56Zm0,0" transform="translate(-105.593 -135.578)" fill-rule="evenodd"/>
  <path id="Path_117" data-name="Path 117" d="M62.64,68.53a2.925,2.925,0,0,0,4.479,0,3.878,3.878,0,0,0,0-5.034l-5.967-6.707a2.927,2.927,0,0,0-4.48,0,3.881,3.881,0,0,0,0,5.034Zm0,0" transform="translate(-38.09 -35.9)" fill-rule="evenodd"/>
  <path id="Path_118" data-name="Path 118" d="M52.014,326.788a2.99,2.99,0,0,0,2.239-1.043l5.967-6.707a3.878,3.878,0,0,0,0-5.034,2.925,2.925,0,0,0-4.479,0l-5.968,6.707a3.881,3.881,0,0,0,0,5.034,2.99,2.99,0,0,0,2.241,1.043Zm0,0" transform="translate(-33.376 -201.546)" fill-rule="evenodd"/>
  <path id="Path_119" data-name="Path 119" d="M309.23,69.572a2.989,2.989,0,0,0,2.239-1.043l5.967-6.707a3.88,3.88,0,0,0,0-5.036,2.926,2.926,0,0,0-4.479,0l-5.967,6.707a3.881,3.881,0,0,0,0,5.036A2.992,2.992,0,0,0,309.23,69.572Zm0,0" transform="translate(-209.127 -35.899)" fill-rule="evenodd"/>
  <path id="Path_120" data-name="Path 120" d="M313.889,314a3.878,3.878,0,0,0,0,5.034l5.967,6.707a2.925,2.925,0,0,0,4.479,0,3.878,3.878,0,0,0,0-5.034L318.368,314a2.925,2.925,0,0,0-4.479,0Zm0,0" transform="translate(-213.841 -201.546)" fill-rule="evenodd"/>
  <path id="Path_121" data-name="Path 121" d="M357.171,197.444h8.439a3.584,3.584,0,0,0,0-7.12h-8.439a3.584,3.584,0,0,0,0,7.12Zm0,0" transform="translate(-241.884 -122.568)" fill-rule="evenodd"/>
  <path id="Path_122" data-name="Path 122" d="M193.491,283.5a3.584,3.584,0,1,0,3.167,3.56A3.387,3.387,0,0,0,193.491,283.5Zm0,0" transform="translate(-130.045 -182.573)" fill-rule="evenodd"/>
  <path id="Path_123" data-name="Path 123" d="M70.92,193.884a3.189,3.189,0,1,0-3.167,3.56A3.387,3.387,0,0,0,70.92,193.884Zm0,0" transform="translate(-44.13 -122.568)" fill-rule="evenodd"/>
</svg>
