<svg id="surface1" xmlns="http://www.w3.org/2000/svg" width="113.124" height="178.983" viewBox="0 0 113.124 178.983">
  <path id="Path_100" data-name="Path 100" d="M56.378,70.375h63.278a2.463,2.463,0,0,0,0-4.89H56.378a2.462,2.462,0,0,0,0,4.89Zm0,0" transform="translate(-31.45 -34.063)"/>
  <path id="Path_101" data-name="Path 101" d="M.747,24.414v146.9c.014,4.23,3.052,7.655,6.8,7.665h99.524c3.756-.011,6.8-3.436,6.8-7.665V24.414c0-4.234-3.043-7.66-6.8-7.665H74.022C72.932,6.344,64.57-1.1,55.34.134,47.609,1.158,41.513,8.034,40.6,16.749H7.547C3.795,16.754.751,20.179.747,24.414Zm108.772,146.9a2.627,2.627,0,0,1-2.457,2.771H7.547a2.627,2.627,0,0,1-2.457-2.771V48.09H109.537ZM57.311,4.844c6.15.01,11.369,5.059,12.327,11.9h-24.6C45.992,9.929,51.184,4.885,57.311,4.844Zm49.76,16.789a2.64,2.64,0,0,1,2.466,2.78V43.195H5.089V24.414a2.636,2.636,0,0,1,2.457-2.78Zm0,0" transform="translate(-0.747 -0.001)"/>
  <path id="Path_102" data-name="Path 102" d="M100.795,151.087h51.3a2.463,2.463,0,0,0,0-4.89h-51.3a2.463,2.463,0,0,0,0,4.89Zm0,0" transform="translate(-56.962 -76.045)"/>
  <path id="Path_103" data-name="Path 103" d="M100.795,204.275h51.3a2.466,2.466,0,0,0,0-4.895h-51.3a2.466,2.466,0,0,0,0,4.895Zm0,0" transform="translate(-56.962 -103.708)"/>
  <path id="Path_104" data-name="Path 104" d="M100.795,257.425h51.3a2.466,2.466,0,0,0,0-4.895h-51.3a2.466,2.466,0,0,0,0,4.895Zm0,0" transform="translate(-56.962 -131.354)"/>
  <path id="Path_105" data-name="Path 105" d="M100.795,310.575h51.3a2.46,2.46,0,0,0,0-4.885h-51.3a2.46,2.46,0,0,0,0,4.885Zm0,0" transform="translate(-56.962 -159.006)"/>
  <path id="Path_106" data-name="Path 106" d="M47.745,141.621a2.157,2.157,0,0,0,1.444,1.014h.322a2.023,2.023,0,0,0,1.331-.522l13.822-12.176a2.625,2.625,0,0,0,.795-3.344A2.033,2.033,0,0,0,62.5,125.7a2.154,2.154,0,0,0-.491.43l-12.023,10.6-2.1-3.374a2.017,2.017,0,0,0-3.021-.6,2.644,2.644,0,0,0-.536,3.4Zm0,0" transform="translate(-25.552 -65.212)"/>
  <path id="Path_107" data-name="Path 107" d="M47.53,194.184a2.165,2.165,0,0,0,1.444,1.019H49.3a2.056,2.056,0,0,0,1.331-.527L64.45,182.494a2.644,2.644,0,0,0,.463-3.42,2.01,2.01,0,0,0-3.034-.512c-.032.026-.068.056-.1.087L49.77,189.263l-2.1-3.374a2.066,2.066,0,0,0-2.907-1.1,2.6,2.6,0,0,0-.972,3.287,2.374,2.374,0,0,0,.323.533Zm0,0" transform="translate(-25.337 -92.629)"/>
  <path id="Path_108" data-name="Path 108" d="M47.728,246.73a2.166,2.166,0,0,0,1.444,1.009h.322a2.023,2.023,0,0,0,1.331-.522l13.822-12.181a2.645,2.645,0,0,0,.463-3.42,2.014,2.014,0,0,0-3.034-.517c-.032.031-.068.056-.1.087L49.953,241.769l-2.094-3.374a2.026,2.026,0,0,0-3.025-.6,2.652,2.652,0,0,0-.536,3.41Zm0,0" transform="translate(-25.534 -119.959)"/>
  <path id="Path_109" data-name="Path 109" d="M47.745,299.773a2.173,2.173,0,0,0,1.444,1.013h.322a2.126,2.126,0,0,0,1.331-.522l13.822-12.186a2.637,2.637,0,0,0,.686-3.374,2.036,2.036,0,0,0-3-.763,2,2,0,0,0-.345.307l-12.023,10.6-2.1-3.374a2.016,2.016,0,0,0-3.021-.6,2.645,2.645,0,0,0-.536,3.405Zm0,0" transform="translate(-25.552 -147.497)"/>
</svg>
