<svg xmlns="http://www.w3.org/2000/svg" width="430.179" height="111.669" viewBox="0 0 430.179 111.669">
  <g id="jFrmrVUUvK" transform="translate(-15.897 279.071)">
    <path id="Path_2" data-name="Path 2" d="M74.912-278.507c-26.889,1.532-26.208,6.859,1.048,8.634,22.119,1.393,47.908-2.367,39.312-5.779C109.454-277.95,89.641-279.342,74.912-278.507Z" transform="translate(1.895 -0.097)" fill="#fefefe"/>
    <path id="Path_3" data-name="Path 3" d="M118.239-277.385c-.367.94-.472,3.934-.315,6.615l.367,4.909-3.355.383c-5.766.731-8.7,3.864-8.7,9.331,0,4.143-.262,4.735-2.359,5.327-1.31.383-2.464,1.323-2.621,2.089-.629,3.2,0,3.273,28.2,3.377,32.865.139,31.711-1.253,11.636,14.1-4.77,3.691-6.6,5.64-6.814,7.346l-.262,2.333,4.665-.07c3.879-.035,4.822-.313,5.242-1.5a9.828,9.828,0,0,1,2.673-3.1c1.153-.87,5.609-4.352,9.907-7.694,8.649-6.789,8.386-6.685,12.947-4.561,2.935,1.393,4.246,1.532,15.934,1.358l12.737-.209,7.128,7.729,7.181,7.694,11.112-.035,11.112-.035,6.762-7.625,6.814-7.625h11.9c11.06,0,12.318-.139,17.035-1.88l5.032-1.915,2.464,2.089c1.31,1.114,6.133,4.8,10.693,8.182,4.613,3.412,8.334,6.789,8.386,7.66.1,1.288.786,1.567,4.56,1.706,8.177.313,6.6-2.681-7.076-13.2-6.342-4.874-11.531-9.157-11.531-9.5,0-1.358,4.3-1.567,28.147-1.428,19.866.1,24.688-.07,25.422-.836,1.625-1.706,1-3.342-1.572-4.491-2.149-.905-2.411-1.462-1.939-3.795,1-5.048-3.093-9.923-9.225-10.793l-3.093-.453v-6.232c0-5.153-.314-6.3-1.73-6.685-3.879-.975-5.084.7-5.084,6.963l.052,5.953-3.25.418c-6.29.766-9.382,3.969-9.278,9.47l.052,4.839H301.9c-5.5,0-7.6-.453-16.511-3.482l-10.221-3.482H249.959l-3.984-3.83-3.984-3.83H204.043l-3.564,4-3.564,4H170.707l-11.165,3.342c-9.592,2.89-11.9,3.307-16.721,3.133l-5.556-.209.262-3.621c.472-5.745-4.717-10.654-11.217-10.654-.681,0-1.258-2.472-1.415-6.441-.314-6.441-.314-6.441-3.145-6.65C119.444-279.056,118.763-278.778,118.239-277.385Zm6.29,17.93c-.367.348.157.836,1.048,1.044,2.411.627,2.254,5.64-.21,6.058-4.3.766-8.963.1-9.33-1.288-.524-2.263,1.625-5.64,4.141-6.371C122.746-260.813,125.42-260.43,124.528-259.455Zm110.44,1.5c13.052,5.71,12,19.81-1.782,24.65-19.394,6.824-39.364-7.973-27.728-20.472C211.539-260.325,225.219-262.24,234.968-257.958Zm92.042-.87c2.044,1.845,2.568,6.093.786,6.545-3.407.87-5.609.418-5.766-1.149l-.1-1.567-.472,1.567c-.786,2.716-1.887,1.706-2.2-2.019C318.834-260.012,323.446-262.031,327.011-258.828Zm-63.528,6.3c0,.209,1.782.453,3.931.487,4.717.07,6.395.348,9.278,1.393,1.258.453,2.568.627,2.935.348.419-.244,1,.244,1.31,1.079a1.586,1.586,0,0,0,1.782,1.114c.681-.209.367.07-.629.592-1,.557-1.572,1.218-1.31,1.462.315.244.262.348-.052.174a24.927,24.927,0,0,0-5.608,1.01,25.2,25.2,0,0,1-7.443.87c-1.887-.348-2.254-.209-1.52.557.734.835.629.835-.891.035-1-.557-1.782-.7-1.782-.348,0,.905-9.749.661-10.221-.279a1.48,1.48,0,0,0-1.625-.488c-.891.244-1.258-.836-1.31-3.482-.053-3.656.052-3.795,2.359-3.412,1.677.278,2.411.1,2.411-.627,0-.766,1.153-1.01,4.193-.975C261.6-252.979,263.483-252.735,263.483-252.527Zm-68.874,2.576c1.782,2.994,1.153,5.571-1.468,6.128-1.1.209-1.992.7-1.992,1.079,0,.418-.891.383-2.149-.1a4.849,4.849,0,0,0-3.407-.139,6.121,6.121,0,0,1-4.141.174c-.157-.07-2.1-.209-4.3-.313s-4.351-.453-4.717-.8a6.383,6.383,0,0,0-2.778-.87c-9.7-1.079-2.568-7.311,7.6-6.615.734.035,1.31-.1,1.31-.348s3.3-.487,7.286-.522l7.286-.07Z" transform="translate(4.118)" fill="#fefefe"/>
    <path id="Path_4" data-name="Path 4" d="M213.254-248.4c-1.1.487,9.854,7.8,11.741,7.8,2.1,0-.472-7.346-2.726-7.764C218.757-249.03,214.774-249.03,213.254-248.4Z" transform="translate(9.532 -9.172)" fill="#fefefe"/>
    <path id="Path_5" data-name="Path 5" d="M206.338-244.6c-4.036,2.681-7.758,9.818-5.609,10.689.524.209,4.193-1.6,8.229-4l7.286-4.422-2.516-1.81C210.688-246.31,209.063-246.414,206.338-244.6Z" transform="translate(8.9 -10.082)" fill="#fefefe"/>
    <path id="Path_6" data-name="Path 6" d="M227-238.3v6.615h3.564c5.923,0,6.133-5.884.419-11.315C227.681-246.1,227-245.3,227-238.3Z" transform="translate(10.199 -10.43)" fill="#fefefe"/>
    <path id="Path_7" data-name="Path 7" d="M204.246-228.425c-2.83,2.019-2.83,2.437.262,5.014,3.092,2.542,3.3,2.4,4.141-2.611C209.436-230.548,208.23-231.21,204.246-228.425Z" transform="translate(8.999 -14.876)" fill="#fefefe"/>
    <path id="Path_8" data-name="Path 8" d="M211-220.936c0,4.874,11.217,5.188,18.765.487,5.189-3.2,4.4-3.551-7.758-3.551H211Z" transform="translate(9.426 -16.724)" fill="#fefefe"/>
    <path id="Path_9" data-name="Path 9" d="M143.767-278.291c-28.514,2.193-18.136,8.46,13.995,8.5,19.551,0,30.558-1.637,30.558-4.561C188.321-277.455,162.427-279.718,143.767-278.291Z" transform="translate(5.374 -0.104)" fill="#fefefe"/>
    <path id="Path_10" data-name="Path 10" d="M263.919-278.183c-28.933,2.019-17.769,8.53,14.467,8.46,18.5-.07,29.458-1.671,30.244-4.526C309.626-277.7,286.406-279.75,263.919-278.183Z" transform="translate(11.177 -0.108)" fill="#fefefe"/>
    <path id="Path_11" data-name="Path 11" d="M335.753-278.22c-24.111,1.706-20.861,6.894,5.242,8.426,21.438,1.253,44.553-2.054,39.207-5.605C376.533-277.837,352.055-279.369,335.753-278.22Z" transform="translate(14.664 -0.14)" fill="#fefefe"/>
    <path id="Path_15" data-name="Path 15" d="M387-151.557v17.443l4.246-.209,4.193-.209.262-17.234.21-17.234H387Z" transform="translate(17.93 -33.426)" fill="#fefefe"/>
    <path id="Path_16" data-name="Path 16" d="M256.257-162.215l-.157,2.785h19.813v26.46h9.54l-.734-13.23-.681-13.23h20.18V-165h-47.8Z" transform="translate(11.605 -34.641)" fill="#fefefe"/>
    <path id="Path_17" data-name="Path 17" d="M308.556-152.9c-4.875,2.019-5.556,3.412-5.556,11,0,10.131,2.988,12.046,18.817,12.046h8.439v-6.128l-8.177.348c-11.27.522-14.047-2.611-10.745-12.151.314-.94,22.224,0,22.8.975,1.468,2.507-1.048,3.377-10.535,3.586l-9.068.209v5.5h9.487c14.467,0,21.176-4,17.874-10.619C339.01-153.909,318.2-156.9,308.556-152.9Z" transform="translate(13.871 -37.76)" fill="#fefefe"/>
    <path id="Path_18" data-name="Path 18" d="M352.423-153.13c-4.665,1.6-6.238,3.934-6.866,10.306-1,11,2.83,13.2,23.272,13.2h12.842v-6.232l-13.366-.174-13.366-.209-.314-5.745-.315-5.745h27.361V-154H368.305C359.761-154,354.048-153.652,352.423-153.13Z" transform="translate(15.921 -37.982)" fill="#fefefe"/>
    <path id="Path_19" data-name="Path 19" d="M399-151.032v3.168l9.173.209,9.173.209.314,8.878.262,8.878h9.645l-.629-2.193a52.477,52.477,0,0,1-.681-9.714c0-10.828-1.625-12.012-16.668-12.36L399-154.2Z" transform="translate(18.51 -37.921)" fill="#fefefe"/>
    <path id="Path_21" data-name="Path 21" d="M16.529-164.37c-1.206,1.288-.524,29.42.681,30.429,1.73,1.393,27.309,1.253,33.7-.209,16.668-3.76,18.45-24.336,2.516-29.454C48.346-165.24,17.892-165.867,16.529-164.37Zm33.022,5.919c4.4,1.5,5.242,3.029,5.242,9.4,0,8.7-1.992,9.748-18.241,9.748H24.392V-159.5h11.06C43.261-159.5,47.4-159.183,49.551-158.451Z" transform="translate(0 -34.575)" fill="#fefefe"/>
    <path id="Path_24" data-name="Path 24" d="M74.185-152.4c-4.875,2.159-6.08,4.979-6.133,14.588L68-129.629h9.382l.262-8.878.314-8.878,11.269-.209,11.269-.174V-154H89.124C79.007-154,77.33-153.826,74.185-152.4Z" transform="translate(2.517 -37.982)" fill="#fefefe"/>
    <path id="Path_25" data-name="Path 25" d="M110.742-153.122c-6.709,1.915-10.011,15.041-4.979,19.81,5.242,5.014,31.135,5.014,36.377,0,1.992-1.88,2.464-13.2.681-16.259C140.409-153.819,120.648-156.012,110.742-153.122Zm24.216,11.176v5.571H112.943l-.314-4.8c-.472-7-.891-6.754,11.584-6.545l10.745.209Z" transform="translate(4.224 -37.85)" fill="#fefefe"/>
    <path id="Path_26" data-name="Path 26" d="M150.835-153.279c-1.625.661-1.835,2.019-1.835,12.186v11.454h9.644l-.314-9.191-.315-9.226,9.382.209c12.947.313,13.051.383,13.051,10.305v7.9h9.592l-.314-8.669c-.419-9.365-1.153-10.723-7.6-13.926C178.772-153.906,154.346-154.741,150.835-153.279Z" transform="translate(6.431 -37.972)" fill="#fefefe"/>
    <path id="Path_27" data-name="Path 27" d="M200.6-152.982c-5.189,1.706-6.867,4.874-6.447,12.186.524,9.122,2.988,10.619,17.769,10.967l10.483.244-.315-3.029-.315-3.029-7.5.244c-11.165.348-12.056-.139-11.689-6.719l.315-5.362,11.165-.209c11.951-.209,13.785.348,11.322,3.377-.943,1.184-2.254,1.358-9.959,1.358h-8.858v5.71l10.588-.244c14.991-.348,21.6-6.093,14.886-12.882C228.433-154.062,208.882-155.663,200.6-152.982Z" transform="translate(8.61 -37.885)" fill="#fefefe"/>
  </g>
</svg>
