<svg xmlns="http://www.w3.org/2000/svg" width="159.684" height="159.684" viewBox="0 0 159.684 159.684">
  <path id="Path_180" data-name="Path 180" d="M147.34,65H122.185V62.342A12.358,12.358,0,0,0,109.841,50H82.186V19.4a9.844,9.844,0,1,0-4.687,0V50H49.843A12.358,12.358,0,0,0,37.5,62.342V65H12.343A12.358,12.358,0,0,0,0,77.342v65a12.358,12.358,0,0,0,12.343,12.343H57.5v2.344a2.659,2.659,0,0,0,2.656,2.656H99.529a2.659,2.659,0,0,0,2.656-2.656v-2.344H147.34a12.358,12.358,0,0,0,12.343-12.343v-65A12.358,12.358,0,0,0,147.34,65ZM74.686,9.844A5.156,5.156,0,1,1,79.842,15,5.162,5.162,0,0,1,74.686,9.844Zm-32.5,52.5a7.665,7.665,0,0,1,7.656-7.656h60a7.665,7.665,0,0,1,7.656,7.656V65H102.185V62.655A2.659,2.659,0,0,0,99.529,60H60.155A2.659,2.659,0,0,0,57.5,62.655V65H42.187Zm20,5.012s0-.008,0-.012,0-.008,0-.012V64.686H97.5V72.5H62.186ZM4.687,142.34v-65a7.665,7.665,0,0,1,7.656-7.656H20V150H12.343A7.665,7.665,0,0,1,4.687,142.34ZM62.186,155v-7.812H97.5v5.144s0,.008,0,.012,0,.008,0,.012V155Zm37.03-12.5H60.467a2.972,2.972,0,0,0-2.969,2.969V150H43L96.5,96.5a2.344,2.344,0,0,0-3.314-3.314L36.372,150H24.687V69.686H57.5v4.531a2.972,2.972,0,0,0,2.969,2.969H99.216a2.972,2.972,0,0,0,2.969-2.969V69.686h14.5l-6,6A2.344,2.344,0,1,0,114,79l9.313-9.313H135V150H102.185v-4.531A2.972,2.972,0,0,0,99.216,142.5ZM155,142.34A7.665,7.665,0,0,1,147.34,150h-7.656V69.686h7.656A7.665,7.665,0,0,1,155,77.342Z"/>
</svg>
