<svg id="map-2" xmlns="http://www.w3.org/2000/svg" width="160.002" height="134.953" viewBox="0 0 160.002 134.953">
  <path id="Path_157" data-name="Path 157" d="M147.634,40H12.368A12.382,12.382,0,0,0,0,52.368V162.585a12.382,12.382,0,0,0,12.368,12.368H147.634A12.382,12.382,0,0,0,160,162.585V52.368A12.382,12.382,0,0,0,147.634,40Zm7.671,75.148H137.458v-5.323h17.848Zm0-40.079H127.438V69.746h27.867Zm0-22.7V65.049H125.09a2.348,2.348,0,0,0-2.348,2.348v10.02a2.348,2.348,0,0,0,2.348,2.348h30.216v5.323h-93V44.7H90.177V54.873a2.348,2.348,0,0,0,2.348,2.348h20.039a2.348,2.348,0,0,0,2.348-2.348V44.7h7.828V54.873a2.348,2.348,0,0,0,2.348,2.348h22.544a2.348,2.348,0,0,0,2.348-2.348V45.066A7.684,7.684,0,0,1,155.306,52.368ZM94.874,44.7h15.343v7.828H94.874Zm32.564,0h17.848v7.828H127.438Zm-97.692,0h7.828v7.828H29.746Zm-17.378,0H25.049V54.873A2.348,2.348,0,0,0,27.4,57.221H39.922a2.348,2.348,0,0,0,2.348-2.348V44.7h5.323V85.089H4.7V79.766H17.378a2.348,2.348,0,0,0,2.348-2.348V64.893a2.348,2.348,0,0,0-2.348-2.348H4.7V52.368A7.68,7.68,0,0,1,12.368,44.7ZM23.92,109.825l13.654,13.654v29.243H32.251v-25.2c0-.078,0-.155-.012-.233,0-.033-.01-.066-.014-.1s-.011-.086-.02-.129-.018-.075-.028-.113-.017-.074-.028-.11-.025-.072-.038-.109-.025-.073-.04-.108-.031-.066-.046-.1-.033-.073-.052-.109-.037-.063-.055-.094-.04-.07-.063-.1-.049-.068-.075-.1-.04-.056-.062-.083q-.074-.09-.156-.173L21.544,115.837c-.055-.055-.113-.107-.173-.156-.026-.022-.054-.04-.08-.06s-.068-.053-.1-.076-.066-.04-.1-.06-.064-.04-.1-.058-.069-.034-.1-.05-.069-.034-.105-.049-.068-.025-.1-.037-.076-.029-.116-.04-.068-.018-.1-.026-.08-.022-.121-.03-.077-.012-.115-.018-.074-.013-.112-.016c-.068-.007-.135-.009-.2-.01l-.028,0H4.7v-5.323H23.92ZM4.7,134.874h7.828v17.848H4.7Zm0-67.633H15.03v7.828H4.7Zm0,95.344v-5.166H14.873a2.348,2.348,0,0,0,2.348-2.348V132.526a2.348,2.348,0,0,0-2.348-2.348H4.7V119.845H18.91l8.644,8.644V155.07a2.348,2.348,0,0,0,2.348,2.348h10.02a2.348,2.348,0,0,0,2.348-2.348V122.507c0-.078,0-.155-.012-.233,0-.033-.01-.066-.014-.1s-.011-.086-.02-.129-.018-.075-.028-.113-.017-.074-.028-.11-.025-.072-.038-.109-.025-.073-.04-.108-.031-.066-.046-.1-.033-.073-.052-.109-.037-.063-.055-.094-.04-.07-.063-.1-.049-.068-.075-.1-.04-.056-.062-.083a2.325,2.325,0,0,0-.156-.173L26.554,105.817c-.055-.055-.113-.107-.173-.156-.026-.022-.054-.04-.08-.06s-.068-.053-.1-.076-.066-.04-.1-.06-.064-.04-.1-.058-.069-.034-.1-.05-.069-.034-.105-.049-.068-.025-.1-.037-.076-.028-.116-.04-.068-.018-.1-.026-.08-.022-.121-.03-.077-.012-.115-.018-.074-.013-.112-.016c-.068-.007-.135-.009-.2-.01l-.028,0H4.7V99.805h42.9v70.451H12.368A7.68,7.68,0,0,1,4.7,162.585Zm57.613,7.671V99.806h43.606l25.832,70.451Zm74.44,0L109.761,96.648a2.348,2.348,0,0,0-2.2-1.54H59.962a2.348,2.348,0,0,0-2.348,2.348v72.8H52.29v-72.8a2.349,2.349,0,0,0-2.348-2.348H4.7V89.785H49.942a2.348,2.348,0,0,0,2.348-2.348V44.7h5.323v42.74a2.349,2.349,0,0,0,2.348,2.348h95.344v5.323h-37.73a2.349,2.349,0,0,0-2.2,3.157l26.4,71.991Zm10.885,0h-.865L120.937,99.805h34.368v5.323h-20.2a2.348,2.348,0,0,0-2.348,2.348V117.5a2.348,2.348,0,0,0,2.348,2.348h20.2v42.74A7.68,7.68,0,0,1,147.634,170.256Z" transform="translate(0 -40)"/>
  <path id="Path_158" data-name="Path 158" d="M253.261,260.368v-10.02A2.348,2.348,0,0,0,250.912,248H225.863A9.874,9.874,0,0,0,216,257.863V275.4a2.348,2.348,0,0,0,2.348,2.348h10.02a2.348,2.348,0,0,0,2.348-2.348V262.716h20.2A2.348,2.348,0,0,0,253.261,260.368Zm-4.7-2.348h-20.2a2.348,2.348,0,0,0-2.348,2.348v12.681H220.7V257.863a5.172,5.172,0,0,1,5.166-5.166h22.7Z" transform="translate(-148.367 -182.872)"/>
  <path id="Path_159" data-name="Path 159" d="M228.368,360h-10.02A2.348,2.348,0,0,0,216,362.348v20.039a2.348,2.348,0,0,0,2.348,2.348h10.02a2.348,2.348,0,0,0,2.348-2.348V362.348A2.348,2.348,0,0,0,228.368,360Zm-2.348,20.039H220.7V364.7h5.323Z" transform="translate(-148.367 -259.803)"/>
  <path id="Path_160" data-name="Path 160" d="M260.932,98.02H230.716V90.348A2.348,2.348,0,0,0,228.368,88h-10.02A2.348,2.348,0,0,0,216,90.348v12.525a9.874,9.874,0,0,0,9.863,9.863h35.069a2.348,2.348,0,0,0,2.348-2.348v-10.02A2.348,2.348,0,0,0,260.932,98.02Zm-2.348,10.02H225.863a5.172,5.172,0,0,1-5.166-5.166V92.7h5.323v7.671a2.348,2.348,0,0,0,2.348,2.348h30.216Z" transform="translate(-148.367 -72.97)"/>
  <path id="Path_161" data-name="Path 161" d="M296,346.348v24.423a2.978,2.978,0,0,0,2.975,2.975h14.4a2.348,2.348,0,0,0,2.348-2.348V346.975A2.978,2.978,0,0,0,312.752,344h-14.4A2.348,2.348,0,0,0,296,346.348Zm4.7,2.348H311.03v20.353H300.7Z" transform="translate(-203.318 -248.813)"/>
  <path id="Path_162" data-name="Path 162" d="M82.348,129.221H94.873a2.348,2.348,0,0,0,2.348-2.348V114.348A2.348,2.348,0,0,0,94.873,112H82.348A2.348,2.348,0,0,0,80,114.348v12.525A2.348,2.348,0,0,0,82.348,129.221ZM84.7,116.7h7.828v7.828H84.7Z" transform="translate(-54.951 -89.456)"/>
</svg>
