<svg xmlns="http://www.w3.org/2000/svg" width="134.684" height="159.684" viewBox="0 0 134.684 159.684">
  <g id="Group_166" data-name="Group 166" transform="translate(-1704.567 -2065.705)">
    <path id="Path_182" data-name="Path 182" d="M127.45,133.221l27.584-39.586a4.6,4.6,0,0,0-4-7.666H133.014l3.1-25.091c.374-2.515-.217-4.1-1.756-4.715s-3.072.137-4.523,2.219L105.156,92.989a4.6,4.6,0,0,0,4,7.667h15.4l-3.4,30.1c-.37,2.507.221,4.089,1.758,4.7a2.8,2.8,0,0,0,1.042.208C125.143,135.669,126.315,134.85,127.45,133.221Zm1.477-36.47a2.344,2.344,0,0,0-1.748-.782H109.158a2.851,2.851,0,0,1-.332-.018,2.621,2.621,0,0,1,.162-.261l21.9-30.7-2.848,23.04a2.344,2.344,0,0,0,2.326,2.631h20.67a2.912,2.912,0,0,1,.331.018,2.957,2.957,0,0,1-.175.282l-24.848,35.66,3.168-28.04A2.345,2.345,0,0,0,128.927,96.75Z" transform="translate(1620.565 2027.236)"/>
    <path id="Path_181" data-name="Path 181" d="M172.341,30h-5.156V17.343a2.344,2.344,0,1,0-4.687,0V30h-5.312V17.343a2.344,2.344,0,1,0-4.687,0V30h-5.156a2.344,2.344,0,0,0,0,4.687h.156V44.843a12.362,12.362,0,0,0,10,12.118v64.131a33.906,33.906,0,0,1-67.664,3.158,7.356,7.356,0,0,0,4.853-6.908v-2.656h27.656a12.358,12.358,0,0,0,12.343-12.343v-90A12.358,12.358,0,0,0,122.342,0h-70A12.358,12.358,0,0,0,40,12.343v90a12.358,12.358,0,0,0,12.343,12.343H80v2.656a7.356,7.356,0,0,0,5.136,7,38.594,38.594,0,0,0,77.05-3.254V56.96a12.362,12.362,0,0,0,10-12.118V34.687h.156a2.344,2.344,0,1,0,0-4.687ZM44.687,102.341v-90a7.665,7.665,0,0,1,7.656-7.656h70A7.665,7.665,0,0,1,130,12.343v90A7.665,7.665,0,0,1,122.342,110h-70A7.665,7.665,0,0,1,44.687,102.341Zm40,12.343H90v2.656a2.656,2.656,0,0,1-5.312,0ZM167.5,44.843a7.656,7.656,0,0,1-15.312,0V34.687H167.5Z" transform="translate(1664.567 2065.705)"/>
  </g>
</svg>
