<svg xmlns="http://www.w3.org/2000/svg" width="159.684" height="147.184" viewBox="0 0 159.684 147.184">
  <g id="Group_161" data-name="Group 161" transform="translate(-459.955 -2514.63)">
    <path id="Path_126" data-name="Path 126" d="M142.34,42.5H109.685V32.343A12.358,12.358,0,0,0,97.342,20h-35A12.358,12.358,0,0,0,50,32.343V42.5H17.343A17.363,17.363,0,0,0,0,59.843v90a17.363,17.363,0,0,0,17.343,17.343h125a17.363,17.363,0,0,0,17.343-17.343v-90A17.363,17.363,0,0,0,142.34,42.5Zm-20.156,4.687H132.5v2.656a2.659,2.659,0,0,1-2.656,2.656h-5a2.659,2.659,0,0,1-2.656-2.656Zm-67.5-14.843a7.665,7.665,0,0,1,7.656-7.656h35A7.665,7.665,0,0,1,105,32.343V42.5H54.686Zm-27.5,14.843H37.5v2.656A2.659,2.659,0,0,1,34.843,52.5h-5a2.659,2.659,0,0,1-2.656-2.656ZM155,149.841A12.67,12.67,0,0,1,142.34,162.5h-125A12.67,12.67,0,0,1,4.687,149.841v-90A12.67,12.67,0,0,1,17.343,47.187H22.5v2.656a7.352,7.352,0,0,0,7.344,7.344h5a7.352,7.352,0,0,0,7.344-7.344V47.187H117.5v2.656a7.352,7.352,0,0,0,7.344,7.344h5a7.352,7.352,0,0,0,7.344-7.344V47.187h5.156A12.67,12.67,0,0,1,155,59.843Z" transform="translate(459.955 2494.63)"/>
    <path id="Path_127" data-name="Path 127" d="M175.341,209H155.185v-2.656a2.344,2.344,0,0,0-4.687,0V209H130.342a2.344,2.344,0,1,0,0,4.687H150.5v3.2a7.355,7.355,0,0,0-5,6.958V226.5h-5.7a7.355,7.355,0,0,0-6.958-5h-40a7.355,7.355,0,0,0-6.958,5h-5.7v-2.656a7.355,7.355,0,0,0-5-6.958v-3.2H95.343a2.344,2.344,0,0,0,0-4.687H75.187v-2.656a2.344,2.344,0,0,0-4.687,0V209H50.344a2.344,2.344,0,1,0,0,4.687H70.5v3.2a7.355,7.355,0,0,0-5,6.958v10a7.344,7.344,0,0,0,14.687,0v-2.656h5.7a7.355,7.355,0,0,0,6.958,5H95.5v2.839a9.827,9.827,0,0,0-8.85,7.43,2.347,2.347,0,0,0-.063.392L85.669,259H82.843a2.344,2.344,0,1,0,0,4.687h10a2.344,2.344,0,1,0,0-4.687H90.37l.873-11.582a5.146,5.146,0,0,1,4.646-3.718,7.355,7.355,0,0,0,6.954,4.987h20A7.355,7.355,0,0,0,129.8,243.7a5.146,5.146,0,0,1,4.646,3.718L135.315,259h-2.473a2.344,2.344,0,0,0,0,4.687h10a2.344,2.344,0,1,0,0-4.687h-2.826l-.916-12.151a2.346,2.346,0,0,0-.063-.392,9.826,9.826,0,0,0-8.85-7.43v-2.839h2.656a7.355,7.355,0,0,0,6.958-5h5.7v2.656a7.344,7.344,0,0,0,14.687,0v-10a7.355,7.355,0,0,0-5-6.958v-3.2h20.156a2.344,2.344,0,1,0,0-4.687ZM75.5,233.843a2.656,2.656,0,0,1-5.312,0v-10a2.656,2.656,0,0,1,5.312,0Zm57.342-2.344h-10a2.344,2.344,0,0,0,0,4.687H125.5v5.156A2.659,2.659,0,0,1,122.842,244h-20a2.659,2.659,0,0,1-2.656-2.656v-5.156h12.656a2.344,2.344,0,1,0,0-4.687h-20a2.656,2.656,0,0,1,0-5.312h40a2.656,2.656,0,0,1,0,5.312Zm22.656,2.344a2.656,2.656,0,0,1-5.312,0v-10a2.656,2.656,0,0,1,5.312,0Z" transform="translate(426.954 2368.129)"/>
    <path id="Path_128" data-name="Path 128" d="M175.341,444h-125a2.344,2.344,0,0,0,0,4.687h125a2.344,2.344,0,1,0,0-4.687Z" transform="translate(426.954 2203.127)"/>
  </g>
</svg>
