<svg id="smartphone" xmlns="http://www.w3.org/2000/svg" width="34" height="44.587" viewBox="0 0 34 44.587">
  <path id="Path_165" data-name="Path 165" d="M42.6,0H17.405C14.977,0,13,1.469,13,3.273v38.04c0,1.805,1.977,3.274,4.405,3.274H42.594c2.429,0,4.406-1.469,4.406-3.273V3.273C47,1.469,45.023,0,42.6,0ZM15,5.945H45V34.184H15Zm2.405-4.459H42.594c1.327,0,2.406.8,2.406,1.787V4.459H15V3.273C15,2.288,16.079,1.486,17.405,1.486ZM42.6,43.1H17.405C16.079,43.1,15,42.3,15,41.314V35.67H45v5.644C45,42.3,43.921,43.1,42.6,43.1Z" transform="translate(-13)"/>
  <path id="Path_166" data-name="Path 166" d="M30,49c-2.206,0-4,1.333-4,2.972s1.794,2.972,4,2.972,4-1.333,4-2.972S32.206,49,30,49Zm0,4.459c-1.1,0-2-.667-2-1.486s.9-1.486,2-1.486,2,.667,2,1.486S31.1,53.459,30,53.459Z" transform="translate(-13 -12.587)"/>
  <path id="Path_167" data-name="Path 167" d="M26,4.486h4c.553,0,1-.332,1-.743S30.553,3,30,3H26c-.553,0-1,.332-1,.743S25.447,4.486,26,4.486Z" transform="translate(-13 -0.771)"/>
  <path id="Path_168" data-name="Path 168" d="M33,4.486h1c.553,0,1-.332,1-.743S34.553,3,34,3H33c-.553,0-1,.332-1,.743S32.447,4.486,33,4.486Z" transform="translate(-13 -0.771)"/>
</svg>
