<svg xmlns="http://www.w3.org/2000/svg" width="159.68" height="140.644" viewBox="0 0 159.68 140.644">
  <g id="Group_163" data-name="Group 163" transform="translate(-450.002 -2979.705)">
    <path id="Path_140" data-name="Path 140" d="M159.146,143.92,146.681,87.932a22.309,22.309,0,0,0-40.388-7.494H89.74V75.125h15.147a7.349,7.349,0,0,0,7.341-7.341V37.8a7.35,7.35,0,0,0-7.341-7.341H54.914A7.35,7.35,0,0,0,47.573,37.8V67.784a7.349,7.349,0,0,0,7.341,7.341H70.061v5.313H53.517A22.315,22.315,0,0,0,13.13,87.925l-12.6,56a22.333,22.333,0,0,0,43.6,9.714l1.839-7.869a17.312,17.312,0,0,0,27.144-5.67H86.686a17.312,17.312,0,0,0,27.107,5.7l1.75,7.812a22.333,22.333,0,1,0,43.6-9.69ZM52.26,67.784V37.8a2.657,2.657,0,0,1,2.654-2.654H96.73l-1,1a2.344,2.344,0,1,0,3.314,3.314l4.311-4.311h1.528A2.657,2.657,0,0,1,107.54,37.8V67.783a2.657,2.657,0,0,1-2.654,2.653H68.068L91.552,46.953a2.344,2.344,0,0,0-3.314-3.314l-26.8,26.8H54.914A2.657,2.657,0,0,1,52.26,67.784Zm22.488,7.341h10.3v5.313h-10.3ZM57.413,145.407a12.648,12.648,0,1,1,12.648-12.648A12.662,12.662,0,0,1,57.413,145.407Zm44.975,0a12.648,12.648,0,1,1,12.648-12.648A12.662,12.662,0,0,1,102.388,145.407Zm38.784,20.584a17.62,17.62,0,0,1-21.054-13.4l-2.564-11.446a17.3,17.3,0,0,0,.086-16.615A19.839,19.839,0,0,0,140.3,96.761c-.277-.583-.587-1.159-.921-1.713a2.344,2.344,0,1,0-4.015,2.419c.255.423.491.862.7,1.307a15.01,15.01,0,0,1,1.459,6.5,15.147,15.147,0,1,1-15.147-15.147,15.009,15.009,0,0,1,6.482,1.452,2.344,2.344,0,0,0,2.008-4.235,19.828,19.828,0,0,0-25.342,28.374,17.34,17.34,0,0,0-20.271,19.694H74.545a17.321,17.321,0,0,0-20.261-19.7,19.82,19.82,0,0,0,1.069-18.951c-.277-.583-.587-1.159-.921-1.713a2.344,2.344,0,0,0-4.015,2.419c.255.423.491.862.7,1.307a15.009,15.009,0,0,1,1.459,6.5A15.147,15.147,0,1,1,37.431,90.122a15.008,15.008,0,0,1,6.482,1.452,2.344,2.344,0,0,0,2.008-4.235,19.838,19.838,0,1,0-3.764,37.19,17.3,17.3,0,0,0,.081,16.6l-2.679,11.461a17.646,17.646,0,0,1-34.452-7.65l12.6-56a17.624,17.624,0,0,1,32.481-4.993,2.343,2.343,0,0,0,2.028,1.17h55.382a2.344,2.344,0,0,0,2.029-1.17A17.628,17.628,0,0,1,142.1,88.948l12.465,55.988A17.665,17.665,0,0,1,141.172,165.991Z" transform="translate(450.001 2949.246)"/>
    <path id="Path_141" data-name="Path 141" d="M412.945,262.358h-2.5a2.344,2.344,0,1,0,0,4.687h2.5a2.344,2.344,0,0,0,0-4.687Z" transform="translate(169.428 2789.814)"/>
    <path id="Path_142" data-name="Path 142" d="M356.974,262.358h-2.5a2.344,2.344,0,0,0,0,4.687h2.5a2.344,2.344,0,1,0,0-4.687Z" transform="translate(207.908 2789.814)"/>
    <path id="Path_143" data-name="Path 143" d="M386.457,230.374a2.344,2.344,0,0,0-2.344,2.344v2.5a2.344,2.344,0,0,0,4.687,0v-2.5A2.344,2.344,0,0,0,386.457,230.374Z" transform="translate(185.921 2811.803)"/>
    <path id="Path_144" data-name="Path 144" d="M386.457,286.345a2.344,2.344,0,0,0-2.344,2.344v2.5a2.344,2.344,0,0,0,4.687,0v-2.5A2.344,2.344,0,0,0,386.457,286.345Z" transform="translate(185.921 2773.323)"/>
    <path id="Path_145" data-name="Path 145" d="M141.116,262.358h-2.5a2.344,2.344,0,1,0,0,4.687h2.5a2.344,2.344,0,0,0,0-4.687Z" transform="translate(356.312 2789.814)"/>
    <path id="Path_146" data-name="Path 146" d="M85.145,262.358h-2.5a2.344,2.344,0,1,0,0,4.687h2.5a2.344,2.344,0,1,0,0-4.687Z" transform="translate(394.793 2789.814)"/>
    <path id="Path_147" data-name="Path 147" d="M114.628,230.374a2.344,2.344,0,0,0-2.344,2.344v2.5a2.344,2.344,0,0,0,4.687,0v-2.5A2.344,2.344,0,0,0,114.628,230.374Z" transform="translate(372.805 2811.803)"/>
    <path id="Path_148" data-name="Path 148" d="M114.628,286.345a2.344,2.344,0,0,0-2.344,2.344v2.5a2.344,2.344,0,0,0,4.687,0v-2.5A2.344,2.344,0,0,0,114.628,286.345Z" transform="translate(372.805 2773.323)"/>
    <path id="Path_149" data-name="Path 149" d="M232.559,262.358H202.585a2.344,2.344,0,1,0,0,4.687h29.975a2.344,2.344,0,1,0,0-4.687Z" transform="translate(312.334 2789.814)"/>
    <path id="Path_150" data-name="Path 150" d="M172.571,339.332a2.344,2.344,0,0,0-2.344,2.344,2.654,2.654,0,1,1-2.654-2.654,2.344,2.344,0,0,0,0-4.687,7.341,7.341,0,1,0,7.341,7.341A2.344,2.344,0,0,0,172.571,339.332Z" transform="translate(339.84 2740.329)"/>
    <path id="Path_151" data-name="Path 151" d="M316.5,339.332a2.344,2.344,0,0,0-2.344,2.344,2.654,2.654,0,1,1-2.653-2.654,2.344,2.344,0,0,0,0-4.687,7.341,7.341,0,1,0,7.341,7.341A2.344,2.344,0,0,0,316.5,339.332Z" transform="translate(240.891 2740.329)"/>
  </g>
</svg>
