<svg id="time" xmlns="http://www.w3.org/2000/svg" width="60" height="44.587" viewBox="0 0 60 44.587">
  <path id="Path_163" data-name="Path 163" d="M30,0C13.458,0,0,10,0,22.294S13.458,44.587,30,44.587s30-10,30-22.294S46.542,0,30,0Zm0,43.1c-15.439,0-28-9.334-28-20.807S14.561,1.486,30,1.486s28,9.334,28,20.807S45.439,43.1,30,43.1Z"/>
  <path id="Path_164" data-name="Path 164" d="M30,6c-.552,0-1,.332-1,.743V23.835H14c-.552,0-1,.332-1,.743s.448.743,1,.743H30c.552,0,1-.332,1-.743V6.743C31,6.332,30.552,6,30,6Z" transform="translate(0 -1.541)"/>
</svg>
