<svg id="_018-youtube" data-name="018-youtube" xmlns="http://www.w3.org/2000/svg" width="50.862" height="38.523" viewBox="0 0 50.862 38.523">
  <path id="Path_28" data-name="Path 28" d="M205.237,112.927,194,106.779a2.064,2.064,0,0,0-3.055,1.811v12.191a2.06,2.06,0,0,0,3.041,1.818l11.237-6.042a2.064,2.064,0,0,0,.013-3.629Zm-11.311,6.32v-9.111l8.4,4.6Zm0,0" transform="translate(-171.978 -95.941)"/>
  <path id="Path_29" data-name="Path 29" d="M50.486,9.092l0-.023c-.043-.409-.472-4.051-2.242-5.9A8.276,8.276,0,0,0,42.761.6c-.092-.01-.177-.02-.253-.03L42.419.556C35.7.067,25.54,0,25.439,0h-.018c-.1,0-10.256.067-17.041.556L8.29.566c-.072.01-.152.019-.238.029A8.068,8.068,0,0,0,2.6,3.244C.916,5.076.429,8.64.379,9.04l-.006.052C.358,9.262,0,13.318,0,17.389V21.2c0,4.071.359,8.127.374,8.3l0,.026c.043.4.471,3.977,2.234,5.83a8.446,8.446,0,0,0,5.665,2.534c.207.024.385.044.506.065l.118.016c3.882.369,16.055.551,16.571.559H25.5c.1,0,10.256-.067,16.98-.556l.089-.009c.085-.011.18-.021.285-.032a7.881,7.881,0,0,0,5.4-2.585c1.686-1.833,2.174-5.4,2.223-5.8l.006-.052c.015-.171.374-4.226.374-8.3V17.389c0-4.071-.359-8.126-.374-8.3ZM47.88,21.2c0,3.768-.329,7.649-.36,8.005a9.463,9.463,0,0,1-1.462,4.129,4.9,4.9,0,0,1-3.518,1.632c-.115.012-.221.024-.317.036-6.5.47-16.275.542-16.725.545-.5-.007-12.5-.191-16.263-.541-.193-.031-.4-.055-.621-.08A5.573,5.573,0,0,1,4.8,33.329L4.774,33.3a8.586,8.586,0,0,1-1.433-4.088c-.024-.269-.361-4.2-.361-8.017V17.389c0-3.764.328-7.641.36-8A9.27,9.27,0,0,1,4.8,5.255a5.143,5.143,0,0,1,3.592-1.7l.243-.029c6.6-.473,16.44-.543,16.793-.546s10.191.073,16.731.546l.262.031a5.337,5.337,0,0,1,3.65,1.653l.012.013c.807.841,1.307,2.986,1.433,4.147.023.254.361,4.189.361,8.018Zm0,0" transform="translate(0.001 0)"/>
</svg>
